# xmcd
#
# Track frame offsets:
#	150
#	13371
#	21672
#	32184
#	38793
#	47301
#	52971
#	65491
#	71631
#	84427
#	89812
#	97003
#	110141
#	126105
#	134907
#	148804
#	161260
#	167648
#	176487
#	180073
#	198105
#	219956
#
# Disc length: 3228 seconds
#
# Revision: 0
# Processed by: cddbd v1.4PL0 Copyright (c) Steve Scherf et al.
# Submitted via: EasyCDDAExtractor 4.5.0.2
#
DISCID=3c0c9a16
DTITLE=Patrick Verbeke and le Magic Blues Band - Willie et Louise
DYEAR=1998
DGENRE=Blues
TTITLE0=Bluesissippi
TTITLE1=Jessie's Jump
TTITLE2=Ventre De Plomb/ Trouble In Mind
TTITLE3=Louise Boogie
TTITLE4=Willie and Leadbelly ( Ballade De Willie 1 )
TTITLE5=La Chapelle
TTITLE6=Chantons Ce Gospel
TTITLE7=Séparation
TTITLE8=Louise Blues
TTITLE9=Poseurs De Rails: Bluesissippi 2
TTITLE10=Prends Ce Marteau
TTITLE11=Le Petit Train
TTITLE12=Chicago Mood
TTITLE13=La Chasse Au Renard
TTITLE14=Chicago Club
TTITLE15=Sweet Home Chicago
TTITLE16=Martin and Elvis
TTITLE17=Blue Suede Shoes/ Be Bop A Lula
TTITLE18=Funky Willie
TTITLE19=Walkin' The Dog
TTITLE20=Les Retrouvailles
TTITLE21=Willie and Leadbelly ( Ballade De Willie 2 )
EXTD=
EXTT0=
EXTT1=
EXTT2=
EXTT3=
EXTT4=
EXTT5=
EXTT6=
EXTT7=
EXTT8=
EXTT9=
EXTT10=
EXTT11=
EXTT12=
EXTT13=
EXTT14=
EXTT15=
EXTT16=
EXTT17=
EXTT18=
EXTT19=
EXTT20=
EXTT21=
PLAYORDER=
